<?xml version="1.0" encoding="utf-8"?>
<!-- Generator: Adobe Illustrator 24.1.0, SVG Export Plug-In . SVG Version: 6.00 Build 0)  -->
<svg version="1.1" id="Layer_1" xmlns="http://www.w3.org/2000/svg" xmlns:xlink="http://www.w3.org/1999/xlink" x="0px" y="0px"
	 viewBox="0 0 504 360" style="enable-background:new 0 0 504 360;" xml:space="preserve">
<style type="text/css">
	.st0{fill:#011E3E;}
</style>
<g>
	<path class="st0" d="M22.7,314.3c6.8-0.1,13.5-0.3,20.3-0.4c4.2,0,8.4,0.1,12.6,0.1c1.1,0,1.7,0.6,1.9,1.7c0.5-0.1,0.8-0.3,1.2-0.4
		c2.2-0.9,4.5-1.2,6.8-1.1c0.6,0,1.4,0.4,1.8-0.6c0.1-0.1,0.5-0.1,0.8-0.1c1.1,0,2.2-0.1,3.4,0c0.8,0,1.3-0.3,1.2-1.1
		c-0.4-2.4,0.9-3.3,3-4c2.2-0.7,4.2-1.7,6.5-2.6c-0.1,2.6-0.2,5-0.3,7.5c19.8-0.3,39.5-0.6,59.5-0.9c0-2.8,0-5.5,0-8.2
		c0-7.2,0.1-14.4,0.1-21.6c0-0.7,0.2-1.2,0.9-1.4c1.3-0.5,2.6-1.1,4-1.6c0,11,0,21.8,0,32.7c2.3,0,4.5,0,6.8,0
		c3.8-0.1,7.6-0.2,11.4-0.2c10.3-0.2,20.5-0.3,30.8-0.5c1,0,1.4-0.4,1.4-1.4c0-2.1,0-4.2,0-6.4c0-1.1-0.4-1.8-1.4-2.2
		c-1.7-0.6-3-1.6-3.1-3.5c-0.1-2,1-3.4,2.6-4.4c0.6-0.4,1.3-0.8,2.1-1.4c-0.8-0.4-1.4-0.7-2-1c-3.3-1.5-3.8-4.3-1.2-6.7
		c0.4-0.4,0.7-0.8,1.2-1c1.5-0.8,1.9-2,1.9-3.6c-0.1-6.6,0-13.3,0-19.9c0-0.9,0.2-1.3,1.1-1.6c2.6-1,5.2-2.1,8-3.3
		c0,1.4,0,2.7,0,3.9c0,7.5,0,15,0,22.6c0,0.9,0.3,1.8,0.7,2.6c0.7,1.4,0.8,2.6,0,4.1c-1.1,2-1.2,4.1,0,6.2c0.7,1.3,0.7,2.5,0.1,3.9
		c-0.4,0.9-0.8,1.9-0.8,2.8c-0.1,3.3,0,6.5,0,10c0.3,0,0.7,0.1,1.1,0.1c6.1,0,12.2,0,18.4,0c1,0,1.3-0.3,1.3-1.3
		c-0.1-4.6-0.1-9.1-0.1-13.7c0-13.1-0.1-26.2-0.1-39.4c0-3,0-6.1-0.1-9.1c0-0.8,0.3-1.1,1-1.4c1.3-0.5,2.7-1.1,4.2-1.7
		c0,22.1,0,44,0,65.9c7.1,0,14,0,21.2,0c0-1.2,0-2.4,0-3.6c0.1-7.6,0.1-15.2,0.2-22.8c0.1-14.5,0.3-29,0.4-43.5
		c0-0.4,0.1-0.7,0.1-1.1c0-1.3-0.4-3,0.3-3.8c0.8-1,2.5-1.2,3.8-1.8c0.3-0.1,0.6-0.2,1-0.4c-0.2,25.6-0.5,51.1-0.7,76.8
		c14.5-0.3,28.9-0.5,43.6-0.8c0-2.6-0.1-5.2,0-7.7c0.3-11.7,0.6-23.3,0.9-35c0.1-6.2,0.3-12.3,0.4-18.5c0.3-10.9,0.5-21.7,0.8-32.6
		c0-0.3,0.2-0.8,0.4-0.9c2.9-1.2,5.7-2.4,8.7-3.6c-0.8,32.8-1.6,65.3-2.3,98.1c14.3-0.3,28.5-0.5,42.8-0.8c0-18,0-35.8,0-53.8
		c-0.7,0.2-1.3,0.4-1.9,0.6c-0.6-1.5-1.2-3-1.8-4.6c0.9-0.4,1.7-0.7,2.5-1c0.9-0.3,1.4-0.9,1.4-2c-0.1-2.3,0-4.6,0-7.1
		c-0.8,0.2-1.5,0.4-2.4,0.7c-0.5-1.5-1.1-3-1.7-4.6c1-0.4,2-0.7,2.9-1.1c0.8-0.3,1.3-0.8,1.2-1.7c0-2.1,0-4.2,0-6.4
		c-1.2,0.3-2.2,0.6-3.5,0.9c-0.5-1.6-0.9-3.1-1.4-4.8c1.4-0.4,2.7-0.8,4-1.3c0.3-0.1,0.8-0.5,0.8-0.8c0.1-2.8,0-5.6,0-8.6
		c-1.1,0.3-2.1,0.6-3.2,0.9c-0.5-1.6-1-3.1-1.5-4.7c1.3-0.4,2.5-0.9,3.7-1.2c0.8-0.2,1.2-0.7,1.2-1.6c-0.1-1.8,0-3.6,0-5.5
		c-1.2,0.4-2.2,0.7-3.4,1.1c-0.6-1.5-1.1-3-1.7-4.5c0.1-0.1,0.1-0.2,0.2-0.3c2.8-1.3,5.6-2.7,8.5-4c0.4-0.2,0.8-0.3,1.2-0.2
		c0.4,0.1,0.8,0.3,1.1,0.2c7.6-2.7,15.1-5.5,22.7-8.3c1.2-0.5,1.4-1.2,0.6-2.2c1.8-0.7,3.5-1.4,5.2-2.2c3.4-1.4,6.9-2.8,10.3-4.2
		c0.8-0.3,1.5-0.4,2.2,0.1c3.6,2.3,7.6,2,11.8,1.9c0-1,0.1-2,0-2.9c-0.1-0.5-0.6-1-1-1.2c-1-0.6-2-1.1-3.3-1.7
		c3.2-1.3,6.2-2.6,9.5-3.9c-0.8,3.1,1.3,3.9,3.5,4.8c-0.8,1.5-1.5,3-2.3,4.5c-0.4-0.1-0.8-0.2-1.3-0.4c0,0.4,0,0.7-0.1,1.2
		c8.1,0.1,16,0.3,24.2,0.4c0.1-1.2,0.2-2.4,0.3-3.6c0.3-5.4,0.5-10.8,0.7-16.2c0-0.8,0.3-1.1,1-1.4c1.3-0.5,2.7-1.1,4.2-1.7
		c-0.4,7.7-0.7,15.3-1.1,23c7.8,0.2,15.5,0.3,23.4,0.5c1-43.4,2.1-86.8,3.1-130.2c-6.7,0-13.4,0-20.2,0c-0.9,18-1.7,36-2.6,54.1
		c-1.5-0.4-2.9-0.7-4.2-1.1c-0.7-0.2-0.7-0.5-0.7-1.1c0.5-10.4,1-20.8,1.5-31.3c0.3-6.6,0.6-13.3,1-19.9c0-0.3,0-0.5,0-0.9
		c-8.9,0-17.8,0-26.8,0c-0.5,15.6-0.9,31.1-1.4,46.8c-1.7-0.4-3.3-0.7-5-1.1c0.4-15.3,0.9-30.5,1.3-45.8c-8.4,0-16.7,0-25.2,0
		c-0.2,13.5-0.5,27-0.7,40.7c-1.6-0.3-3.1-0.5-4.6-0.9c-0.2-0.1-0.4-0.7-0.4-1.1c0-4.1,0.1-8.2,0.2-12.2c0.1-6.5,0.2-12.9,0.3-19.4
		c0-2.3,0-4.7,0-7.1c-8.7,0-17.5,0-26.4,0c0,11.7,0,23.4,0,35.1c-1.6-0.3-3.1-0.5-4.5-0.8c-0.2,0-0.5-0.4-0.6-0.7
		c-0.1-0.3,0-0.6,0-1c0-10.4,0-20.8,0-31.2c0-0.5,0-1,0-1.6c-12.5,0-24.9,0-37.3,0c-0.2,9.5-0.4,18.9-0.6,28.6c-3-0.4-6-0.8-9-1.3
		c0.2-9.2,0.4-18.3,0.6-27.5c-15.7,0-31.3,0-47.1,0c0,7.2,0,14.5,0,21.9c-1.7-0.2-3.2-0.3-4.6-0.5c-0.2,0-0.5-0.5-0.5-0.8
		c0-2.8,0.1-5.5,0.1-8.3c0-4.1,0-8.2,0-12.5c-0.4,0-0.8-0.1-1.2-0.1c-15.3,0-30.6,0-46,0c-1.1,0-1.4,0.3-1.4,1.4
		c0.1,4.8,0,9.6,0,14.4c0,0.4,0,0.9,0,1.5c-3-0.2-5.9-0.4-9-0.6c0-5.6,0-11.1,0-16.7c-16.2,0-32.4,0-48.8,0c0,4.6,0,9.2,0,13.7
		c-1.8,0-3.4,0-5,0c0-4.7,0-9.2,0-13.9c-0.5,0-0.9-0.1-1.4-0.1c-13,0-25.9-0.1-38.9-0.1c-2,0-4.1-0.1-6.1-0.1c-1.8,0-1.9,0.2-2,2
		c-0.1,3.4-0.3,6.8-0.5,10.2c0,0.2-0.1,0.3-0.1,0.5c-3,0-5.9,0-9,0c0.2-4.2,0.4-8.3,0.6-12.5c-8.9,0-17.8,0-26.7,0
		c-0.1,3.5-0.3,6.9-0.4,10.5c-1.7-0.1-3.3-0.2-5-0.2c0.1-3.4,0.3-6.8,0.4-10.4c-1.9,0-3.6,0-5.4,0c-0.2,0-0.6,0.6-0.6,0.9
		c-0.4,2.7-0.8,5.5-1.2,8.2c0,0.3-0.1,0.8-0.2,0.8c-1.3,0.2-0.9,1.3-0.9,2c-0.2,9.9-2,19.7-3,29.6c-1.1,9.9-2.2,19.9-3.2,29.8
		c-1.1,10.8-2.1,21.6-3,32.5c-0.6,6.2-1,12.4-1.5,18.6c0,0.2,0,0.4,0,0.7c2,0,4.1,0,6.1,0c0,1.8,0,3.4,0,5.2c-1.9,0-3.7,0-5.5,0
		c-0.8,0-1,0.3-1.1,1c-0.7,12.6-1.5,25.1-2.2,37.7c-0.5,8.9-0.8,17.8-1.2,26.7c0,0.6,0,1.2,0,1.9c2.4,0,4.7,0,7,0c0,3.1,0,6.1,0,9.2
		c-2.6,0-4.9,0-7.5,0c-0.2,12.8-0.5,25.5-0.7,38.2c-1.7,0-3.2,0-4.9,0c0.2-38.4,1.9-76.6,4.5-114.9c-0.6-0.1-1.1-0.2-1.7-0.3
		c0-1.6,0-3.2,0-4.9c0.7,0,1.3-0.1,2.1-0.1c3-41.1,7.4-82.1,13-123c-4,0-8,0-12,0c0-1.7,0-3.3,0-5.1c0.6,0,1.2,0,1.7,0
		c3.3,0,6.6,0,9.8,0c0.9,0,1.3-0.3,1.3-1.2c0-0.7,0.2-1.4,0.4-2.3c1.6,0.2,3.2,0.4,4.9,0.7c-0.1,0.9-0.1,1.8-0.2,2.7
		c1.7,0,3.4,0,5.2,0c0-1.3,0.8-1.4,1.8-1.3c1.1,0.1,2.1,0,3.3,0c-0.2,1.6,0.9,1.5,1.9,1.5c7.6,0,15.1,0.1,22.7,0.1
		c18.5,0,37,0,55.6,0.1c18.4,0,36.9,0.1,55.3,0.1c0.9,0,1.8-0.4,2.8-0.5c0.3-0.1,0.7-0.1,1.1-0.1c1.9,0,3.8-0.1,5.8,0
		c0.7,0,1.4,0.4,2,0.6c0.3,0.1,0.6,0.1,0.9,0.1c5.3,0,10.6,0.1,16,0.1c10.1,0,20.2,0.1,30.4,0.1c17.3,0,34.6,0,52,0
		c0.6,0,1.4,0.3,1.5-0.8c0-0.1,0.5-0.2,0.7-0.2c2.4,0,4.9,0,7.3,0c0.2,0,0.7,0,0.7,0.1c0.3,1.4,1.4,1,2.2,1
		c11.5,0.1,23,0.1,34.4,0.1c0.2,0,0.5,0,0.8-0.1c0.1-0.5,0.1-0.9,0.2-1.4c1.6,0,3.2,0,4.9,0c0.1,0.4,0.1,0.8,0.2,1.3
		c8.8,0,17.6,0,26.4,0c0.1-0.6,0.2-1.2,0.3-1.8c1.6,0,3.2,0,4.8,0c0,0.6,0.1,1.2,0.1,1.8c8.4,0,16.8,0,25.2,0
		c0.1-0.9,0.1-1.8,0.2-2.7c1.6,0,3.2,0,5,0c0,0.9,0,1.8,0,2.8c9,0,17.9,0,26.8,0c0.1-1.2,0.2-2.5,0.4-4c1.6,0.1,3.2,0.2,4.8,0.3
		c0,1.3,0,2.5,0,3.8c6.6,0,13.2,0,19.9,0c0.1-1.8,0.2-3.6,0.4-5.4c0.9,0,1.8,0,2.6,0c0.7,0.1,1.4,0.3,2.2,0.4c0,1.7,0,3.4,0,5.1
		c1.2,0,2.2,0,3.3,0c0,1.7,0,3.4,0,5c-1.1,0-2.2,0-3.5,0c-1,43.6-2.1,87-3.1,130.5c1.5,0.1,2.7,0.2,3.9,0.3c0,1.7,0,3.2,0,4.9
		c-1.3,0-2.6,0-4,0c-1,40.7-1.9,81.2-2.9,121.9c1.3,0,2.5,0,3.6,0c0,1.7,0,3.2,0,4.7c-1.3,0.1-2.4,0.2-3.6,0.3
		c-0.1,0.6-0.1,1.2-0.2,1.7c-1.7,0-3.3,0-4.9,0c-0.1-0.6-0.1-1.2-0.2-1.8c-8.8,0.2-17.6,0.4-26.4,0.5c-0.1,0.8-0.2,1.6-0.3,2.4
		c-1.7-0.1-3.3-0.2-4.9-0.3c-0.1-0.7-0.1-1.3-0.1-2c-7.3,0.1-14.5,0.3-21.7,0.4c0,1.3,0,2.5,0,3.8c-1.7,0-3.3,0-5,0
		c0-0.8,0-1.4,0-2.1c0-1.6,0-1.6-1.6-1.5c-4.1,0.1-8.2,0.2-12.3,0.2c-2.7,0-5.4,0-8.2,0c-0.1,1.1-0.2,2.1-0.2,3.1c-1.7,0-3.3,0-5,0
		c0-0.9,0-1.8,0-2.7c-0.5,0-0.8-0.1-1.2-0.1c-3.8,0.1-7.7,0.1-11.5,0.2c-2.7,0-5.4,0-8.2,0.1c-1.7,0-1.8,0.2-1.7,1.8
		c0,1.1,0,2.2,0,3.4c-1.7,0-3.4,0-5.1,0c0-1.6,0-3.3,0-5c-14.4,0.3-28.6,0.5-43.1,0.8c0,1.6,0,3.2,0,4.7c-3.1,0-6,0-9,0
		c0-1.5,0-3,0-4.5c-14.5,0.3-28.9,0.5-43.3,0.8c0,2.1,0,4,0,6c-1.7,0-3.4,0-5,0c0-1.9,0-3.9,0-5.9c-7.1,0.1-14,0.3-21,0.4
		c0,1.8,0,3.4,0,5c-1.7,0-3.3,0-5.1,0c0-1.6,0-3.1,0-4.6c-6.9,0-13.8,0-20.8,0c0,1.4,0,2.6,0,3.9c-3.1,0-6,0-9.1,0
		c0-1.3,0-2.5,0-3.7c-16.9,0.3-33.6,0.5-50.3,0.8c-0.1,0.6-0.2,1-0.3,1.4c-1.7,0-3.3,0-4.8,0c-0.1-0.5-0.2-0.8-0.2-1.3
		c-39.3,0.6-78.6,1.2-117.8,1.8c-0.2-0.5-0.3-1-0.4-1.4C22.7,316.7,22.7,315.5,22.7,314.3z M468.8,214.2c-8.2,1.3-16.3,2.6-24.4,3.8
		c-1.4,29.7-2.9,59.4-4.3,89.1c8.9-0.2,17.7-0.4,26.5-0.5C467.3,275.7,468.1,245,468.8,214.2z M435.1,307.2
		c1.4-29.5,2.8-58.9,4.3-88.4c-8,1.3-15.9,2.5-23.8,3.7c0,0.8,0.1,1.5,0,2.2c-0.2,1.2,0.4,1.8,1.5,2.2c1.4,0.6,2.7,1.3,4.2,2
		c-0.7,1.6-1.4,3-2.1,4.5c-1.3-0.5-2.5-1.1-3.8-1.6c0,1.4,0.1,2.7,0,3.9c-0.1,1.3,0.3,2,1.5,2.5c1.5,0.6,3,1.4,4.5,2.2
		c-0.8,1.6-1.5,3-2.2,4.5c-1.4-0.6-2.7-1.2-4.2-1.9c0,2.1,0.1,4.1,0,6c0,1.1,0.4,1.7,1.4,2.1c1.1,0.5,2.2,1,3.4,1.6
		c-0.7,1.5-1.4,3-2.1,4.5c-1-0.4-1.9-0.7-2.9-1.1c-0.5,17.3-1,34.3-1.5,51.5C420.5,307.5,427.7,307.4,435.1,307.2z M358,308.7
		c7.7-0.1,15.3-0.3,22.9-0.4c0-0.4,0.1-0.7,0.1-1c0.1-11.1,0.3-22.2,0.4-33.3c0-1.4-0.3-1.7-1.7-1.9c-4.6-0.7-9.2-1.4-13.7-2
		c-2.6-0.4-5.2-0.8-7.9-1.1C358,282.1,358,295.3,358,308.7z M386.4,273.1c-0.2,11.8-0.4,23.4-0.6,35.1c7.6-0.1,14.9-0.3,22.3-0.4
		c0.1-0.2,0.1-0.3,0.1-0.4c0.3-10.1,0.6-20.1,0.9-30.2c0-0.7-0.3-0.8-0.9-0.8c-3.6-0.5-7.2-1.1-10.8-1.6
		C393.8,274.2,390.1,273.6,386.4,273.1z M419.3,190.8c-1-0.4-1.9-0.8-3-1.2c0,2.6,0,5.1,0,7.6c0,1,0.3,1.6,1.2,2
		c1.3,0.6,2.6,1.3,4,2c-0.8,1.6-1.5,3-2.2,4.5c-1.1-0.5-2.1-1-3.2-1.5c0,0.5-0.1,0.9-0.1,1.2c0,1.9,0,3.8,0,5.6
		c0,1.8,0.6,2.4,2.4,2.1c1.5-0.2,3.1-0.4,4.6-0.7c1.9-0.4,3.9-0.5,5.5-1.4c3.1-1.6,6.1-2.2,9.5-1.4c0.6,0.1,1.2,0.1,1.9,0.2
		c0.4-8.6,0.8-17.1,1.2-25.6c-8.1-0.1-16.1-0.3-24.2-0.4c0,0.1-0.1,0.3-0.1,0.4c1.5,0.7,3,1.5,4.6,2.2
		C420.7,187.7,420,189.2,419.3,190.8z M446,184.4c-0.4,8-0.8,16.1-1.2,24.3c0.3,0,0.5,0,0.6,0c7.6-1.2,15.1-2.4,22.7-3.6
		c0.7-0.1,0.8-0.4,0.8-1c0.1-6.1,0.3-12.3,0.5-18.4c0-1-0.4-1.1-1.2-1.1c-3,0-5.9-0.1-8.9-0.1C455,184.4,450.6,184.4,446,184.4z
		 M409.2,267.3c0-0.5,0.1-0.9,0.1-1.3c0.1-3.5,0.1-7,0.3-10.5c0.1-1.3-0.4-1.9-1.6-2.5c-6-2.7-12.1-5.5-18.1-8.2
		c-1-0.5-2-0.9-3.1-1.4c0,6.3,0,12.5,0,18.7c1.9,0.3,3.7,1,5.1,2.3c0.3,0.3,0.8,0.4,1.2,0.5c2.9,0.5,5.8,0.9,8.8,1.4
		C404.3,266.6,406.7,266.9,409.2,267.3z M381.6,243.7c-0.2,0.1-0.4,0.1-0.7,0.2c-7.2,2.8-14.4,5.6-21.6,8.4
		c-0.9,0.3-1.3,0.9-1.3,1.8c0,1.5,0,3,0,4.4c0,0.9,0.3,1.2,1.1,1.3c2.5,0.3,4.9,0.7,7.3,1.1c4.4,0.7,8.8,1.3,13.3,2
		c1.6,0.2,1.7,0.2,1.8-1.4c0-1.4,0.1-2.9,0.1-4.3C381.6,252.7,381.6,248.3,381.6,243.7z M358.2,220.6c0.3,0,0.5,0,0.6-0.1
		c7.5-2.2,15-4.4,22.5-6.6c0.9-0.3,1.1-0.8,1.1-1.6c0-2.6,0-5.3,0-7.9c0-0.2-0.1-0.5-0.1-0.8c-2.8,0.9-5.6,1.8-8.3,2.7
		c-4.7,1.5-9.5,3-14.2,4.6c-0.7,0.2-1.5,0.4-1.5,1.4C358.2,215,358.2,217.8,358.2,220.6z M411.2,210.1c0-2.5,0-4.7,0-6.9
		c0-1.1-0.4-1.8-1.4-2.2c-4.6-2.2-9.3-4.5-13.9-6.8c-2.7-1.3-5.4-2.6-8.2-4c0,2.5,0.1,4.8,0,7.1c0,1.2,0.3,1.8,1.4,2.3
		c6.9,3.3,13.7,6.6,20.6,9.9C410.1,209.7,410.6,209.8,411.2,210.1z M410.8,224.1c0-2.4-0.1-4.6,0-6.7c0-1.3-0.5-2-1.6-2.5
		c-6.8-3.3-13.7-6.6-20.5-9.8c-0.4-0.2-0.7-0.3-1.2-0.5c0,2.5,0.1,4.8,0,7.1c-0.1,1.2,0.4,1.9,1.5,2.4c4.4,2,8.7,4,13,6
		C404.8,221.3,407.6,222.6,410.8,224.1z M381.9,230.5c-0.5,0.1-0.9,0.2-1.2,0.4c-2.4,0.8-4.7,1.7-7.1,2.5c-4.7,1.7-9.3,3.3-14,5
		c-0.6,0.2-1.4,0.8-1.4,1.2c-0.1,2.5-0.1,4.9-0.1,7.4c0.2,0,0.4,0.1,0.4,0c7.5-2.9,15-5.8,22.5-8.8c0.3-0.1,0.7-0.7,0.7-1.1
		C382,235,381.9,232.8,381.9,230.5z M382.7,190.2c-0.3,0-0.3,0-0.4,0c-7.7,2.8-15.4,5.7-23.1,8.5c-0.4,0.1-0.8,0.6-0.9,1
		c-0.1,2,0,4,0,6.3c1.8-0.6,3.4-1.1,5-1.6c5.8-1.9,11.7-3.8,17.5-5.6c1.3-0.4,1.9-1.1,1.9-2.5C382.6,194.3,382.7,192.2,382.7,190.2z
		 M410,248.3c0-2-0.1-3.8,0-5.6c0.1-1.5-0.4-2.3-1.7-3c-6.1-2.8-12.1-5.8-18.1-8.7c-0.9-0.5-1.9-0.9-3.2-1.4c0,2.4,0.1,4.6,0,6.7
		c0,1.1,0.4,1.7,1.4,2.2c3.9,1.7,7.9,3.5,11.8,5.3C403.4,245.3,406.6,246.8,410,248.3z M382.2,219c-8.1,2.4-16,4.7-23.9,7.1
		c0,2.5,0,4.9,0,7.2c0.1,0,0.2,0.1,0.3,0c7.6-2.7,15.3-5.4,22.9-8.1c0.3-0.1,0.7-0.7,0.7-1.1C382.2,222.5,382.2,220.8,382.2,219z
		 M411.5,196.1c0-2.9,0-5.5,0-8.1c0-0.4-0.6-0.9-1-1.2c-1.9-0.9-3.7-1.9-5.6-2.6c-1.4-0.5-3-0.9-4.5-0.9c-3.6-0.1-7.3,0-10.9,0
		c-0.5,0-0.9,0-1.4,0c-0.3,1.3,0.5,1.6,1.3,2c4.7,2.3,9.4,4.6,14.1,6.9C406,193.4,408.5,194.6,411.5,196.1z M410.3,235.1
		c0-1.6-0.1-2.9,0-4.2c0.1-1-0.3-1.6-1.2-2.1c-6.8-3.1-13.7-6.3-20.5-9.5c-0.4-0.2-0.8-0.3-1.3-0.5c0,1.5,0.1,2.8,0,4.1
		c0,0.8,0.2,1.3,1,1.6c4.1,1.9,8.2,3.9,12.3,5.8C403.8,232,406.9,233.5,410.3,235.1z"/>
	<path class="st0" d="M147.4,173.3c14.2,0.3,28.3,0.6,42.4,0.8c0.1-1.2,0-2.3,0.2-3.3c0.6-2.7,2.6-4.3,5-5.3
		c1.6-0.7,1.9-1.6,1.9-3.2c0-17.3,0.1-34.6,0.1-52c0-4.2,0-8.5,0-12.7c0-0.4,0-0.8,0-1.4c3.1,0.2,6,0.4,9,0.6c0,0.6,0,1,0,1.5
		c0,9.4-0.1,18.7-0.1,28.1c0,11.7-0.1,23.4-0.1,35.2c0,2.3,0,2.3,2.2,3.2c5,2.1,6,4,5.1,9.7c13.5,0.3,26.9,0.5,40.5,0.8
		c0.2-24.7,0.5-49.4,0.7-74.1c1.8,0.2,3.4,0.4,5,0.5c-0.2,24.6-0.5,49-0.7,73.7c15.1,0.3,30.2,0.6,45.2,0.9c0.2-2,0.5-3.8-1.4-5.1
		c-1-0.7-1.2-3-0.2-4c2.6-2.5,2-5.6,2.1-8.5c0.4-12.5,0.6-25,0.9-37.5c0.1-4.2,0.2-8.4,0.3-12.6c0-0.3,0.1-0.6,0.1-1.1
		c3,0.4,5.9,0.8,8.8,1.2c0,2.1,0,4.1,0,6.1c-0.1,5.8-0.2,11.7-0.4,17.5c-0.2,9.8-0.4,19.7-0.7,29.5c0,1.3,0.3,2,1.4,2.7
		c2.6,1.6,2.8,4.5,0.4,6.4c-1.9,1.5-2.5,3.2-2,5.5c0.5,0,1,0.1,1.8,0.1c-0.4,0.2-0.7,0.4-1,0.5c-3.2,1.3-6.4,2.7-9.6,3.9
		c-0.6,0.2-1.3,0.3-2,0.3c-10.2-0.2-20.4-0.4-30.6-0.5c-4.4-0.1-8.7,0-13.3,0c0,1.4,0,3,0,4.6c0,4.5-0.1,9-0.1,13.6
		c0,0.8-0.3,1.1-1,1.4c-1.3,0.5-2.6,1.1-4,1.6c0-7.2,0-14.3,0-21.5c-7.5-0.1-15-0.3-22.6-0.5c0,0.8,0,1.5,0,2.2
		c0,9.2,0,18.5,0.1,27.7c0,1-0.3,1.4-1.2,1.7c-2.5,0.9-4.9,2-7.3,3c0-0.1-0.1-0.2-0.1-0.3c0.8-0.3,1.6-0.8,2.4-1
		c0.8-0.2,1.2-0.6,1.2-1.5c-0.1-8.7-0.1-17.4-0.2-26c0-1.9,0-3.8,0-5.9c-6.6-0.1-13.2-0.3-19.9-0.4c0,0.5-0.1,0.9-0.1,1.3
		c0,6,0,12,0,18c0,7.2-0.1,14.5-0.2,21.7c0,0.4-0.3,1.1-0.6,1.2c-2.6,1.1-5.2,2.2-7.9,3.3c-0.1,0-0.2,0-0.5,0c0-0.5,0-1,0-1.4
		c0-14.2,0.1-28.4,0.1-42.6c0-1.5-0.3-1.7-1.7-1.8c-11.7-0.2-23.4-0.4-35.1-0.6c-4.2-0.1-8.3,0-12.6,0c0,0.5-0.1,1.1-0.1,1.7
		c-0.1,6.6-0.1,13.2-0.2,19.8c0,4.7-0.1,9.4-0.2,14c0,0.8,0.2,1.2,1.1,1.3c1.1,0.2,2.3,0.4,3.4,0.8c3.3,1.2,3.9,4.5,1.4,7
		c-1.3,1.2-2.8,2-4.5,2.3c-1.2,0.2-1.5,0.7-1.5,1.8c0,5.7-0.1,11.4-0.1,17.2c0,0.9-0.3,1.3-1.1,1.6c-1.3,0.4-2.5,1-4,1.6
		c0-1.1,0-2.1,0-3.1c0.1-6,0.1-11.9,0.2-17.9c0-1.2-0.3-2.1-1.4-2.8c-1.1-0.7-1.4-2-1.1-3.3c0.1-0.6,0.4-1.3,0.8-1.7
		c1.8-1.5,1.8-3.5,1.8-5.5c0-7,0.1-13.9,0.2-20.9c0.1-4.3,0.1-8.6,0.2-12.8c0-0.4,0-0.9,0-1.5c-17.9-0.3-35.7-0.7-53.6-1
		c-0.1,1-0.2,2-0.3,2.9c-0.8,14.8-1.5,29.6-2.3,44.4c-0.3,4.9-0.6,9.9-0.8,14.8c-0.1,1.5,0.2,2.9,0.3,4.4c0.1,2.8,0.2,5.6,0.3,8.4
		c0,0.2-0.2,0.6-0.4,0.6c-1,0.1-0.9,0.8-1,1.5c-0.3,5.3-0.6,10.6-0.8,15.9c0,1-0.4,1.5-1.3,1.9c-2.6,1-5.2,2.1-8,3.2
		c0.4-7.5,0.8-14.9,1.1-22.4c-2,0-3.9,0-5.9,0c0-3.1,0-6.1,0-9.2c2.2,0,4.2,0,6.4,0c1.1-22.3,2.3-44.4,3.4-66.7c-2.3,0-4.6,0-6.8,0
		c0-1.8,0-3.4,0-5.1c2.4,0,4.7,0,7.1,0c0.1-2.3,0.3-4.6,0.4-6.9c0.6-11.2,1.1-22.4,1.7-33.6c0.6-11.7,1.2-23.5,1.9-35.2
		c0.1-1.2-0.2-2.2-1.4-2.8c-0.6-0.3-1.1-0.9-1.8-1.6c4.7,0,9,0,13,0C93.4,93,93,94.1,93,95.2c-0.9,16.6-1.8,33.3-2.7,49.9
		c-0.5,8.6-0.9,17.2-1.3,25.7c0,0.4,0,0.8,0,1.3c17.8,0.3,35.5,0.7,53.4,1c0.3-26.7,0.5-53.2,0.8-80c1.7,0.1,3.3,0.2,5,0.2
		C148,120.1,147.7,146.6,147.4,173.3z"/>
	<path class="st0" d="M353.4,161c0-1.5,0-2.8,0-4.2c-1.5,0.4-2.9,0.7-4.5,1.1c-0.4-1.6-0.9-3.1-1.3-4.8c1.9-0.5,3.8-1,5.7-1.6
		c0-3.7,0-7.4,0-11.2c-0.7,0.1-1.3,0.1-2,0.2c-0.5-2.9-1.1-5.7-1.6-8.8c0.9-0.2,1.7-0.4,2.6-0.5c1-0.1,1.4-0.5,1.4-1.6
		c-0.1-4.4,0-8.9,0-13.3c0-0.4,0-0.9,0-1.4c1.7,0.3,3.3,0.6,5.1,0.9c0,4.7,0,9.5,0,14.3c2.2-0.4,4.3-0.8,6.3-1.2
		c0.5-0.1,0.9-0.5,1.2-0.8c3.2-3.7,8.2-4.7,12.5-2.3c1.3,0.7,2.4,0.2,3.6,0c1.7-0.3,1.7-0.3,1.8-2.1c0-1,0.1-1.9,0.1-2.9
		c0-0.1,0.1-0.1,0.1-0.3c1.4,0.3,2.9,0.6,4.4,0.9c0.2,0.1,0.4,0.5,0.5,0.8c0.1,0.7,0,1.4,0,2.3c2.1-0.4,4.1-0.8,6.2-1.1
		c1-0.1,2.2-0.2,3.2,0c6.6,1.4,13.2,2.9,19.8,4.3c0.3,0.1,0.5,0.2,0.6,0.2c-0.2,0.6-0.5,1.2-0.5,1.7c-0.1,1.4-0.1,2.7-0.1,4.1
		c0,0.7-0.2,1.1-0.9,1.3c-1.4,0.5-2.7,1.1-4.2,1.7c0-2.5,0-4.9,0-7.4c-8.1,1.5-16.2,3-24.4,4.5c0,1.6,0,3.3,0,4.9c0,1.3,0.1,2.6,0,4
		c-0.1,1.4,0.4,2.2,1.7,2.6c0.2,0.1,0.4,0.2,0.8,0.4c-0.8,0.4-1.5,0.6-2.2,1c-7.1,3.3-14.7,4.7-22.2,6.7c-2.4,0.7-4.8,1.3-7.2,1.9
		c-1,0.2-1.4,0.8-1.3,1.7c0.4,1.9-0.6,2.8-2.3,3.2C355.2,160.2,354.4,160.6,353.4,161z M383.6,134.6c-8.2,1.5-16.3,3-24.4,4.5
		c-0.7,0.1-0.7,0.6-0.7,1.1c0,3,0,6,0,9c0,0.3,0.1,0.6,0.1,1c8.4-2.2,16.7-4.4,25-6.5C383.6,140.6,383.6,137.6,383.6,134.6z"/>
</g>
</svg>
